<svg version="1.1" xmlns="http://www.w3.org/2000/svg" xmlns:xlink="http://www.w3.org/1999/xlink" width="512.000000pt" height="512.000000pt" viewBox="0,0,256,256"><g fill="#ffffff" fill-rule="nonzero" stroke="none" stroke-width="1" stroke-linecap="butt" stroke-linejoin="miter" stroke-miterlimit="10" stroke-dasharray="" stroke-dashoffset="0" font-family="none" font-weight="none" font-size="none" text-anchor="none" style="mix-blend-mode: normal"><g transform="scale(0.5,0.5)"><g transform="translate(0,512) scale(0.1,-0.1)"><path d="M2480,4800v-160h80h80v160v160h-80h-80z"></path><path d="M1592,4637l-52,-52l115,-115l115,-115l57,58l58,57l-110,110c-60,60 -114,110 -120,110c-6,0 -34,-24 -63,-53z"></path><path d="M3345,4580l-110,-110l58,-57l57,-58l110,110c60,60 110,114 110,120c0,13 -92,105 -106,105c-5,0 -59,-50 -119,-110z"></path><path d="M2073,4305c-240,-65 -361,-295 -293,-560c39,-152 132,-306 288,-475c144,-155 440,-390 493,-390c50,0 278,178 449,350c182,183 287,347 330,515c68,267 -53,497 -297,560c-146,38 -321,-4 -437,-106l-46,-41l-46,41c-116,102 -296,145 -441,106zM2323,4132c58,-26 113,-76 154,-139c54,-85 112,-85 166,0c65,101 152,156 261,164c210,17 339,-155 281,-377c-19,-74 -74,-182 -136,-267c-84,-116 -315,-333 -457,-432l-33,-23l-97,73c-123,94 -307,272 -378,365c-117,157 -171,294 -161,416c10,124 79,209 192,239c47,13 160,2 208,-19z"></path><path d="M1200,3760v-80h160h160v80v80h-160h-160z"></path><path d="M3600,3760v-80h160h160v80v80h-160h-160z"></path><path d="M1143,2534c-24,-24 -25,-30 -19,-95c18,-198 100,-472 206,-687c75,-153 108,-205 391,-614l199,-286v-346v-346h80h80v366c0,257 -3,372 -12,387c-6,12 -120,180 -253,372c-306,442 -360,537 -444,783c-29,85 -81,288 -81,320c0,10 21,12 86,10l86,-3l32,-105c66,-215 149,-373 337,-641c133,-190 163,-222 238,-258l56,-26h435c433,0 435,0 486,23c66,30 112,78 224,236c187,266 277,433 345,639l42,132l87,3l86,3l-6,-33c-43,-240 -140,-498 -263,-701c-27,-45 -156,-235 -285,-422l-236,-340v-372v-373h80h80v348v347l222,320c122,176 246,361 277,410c149,244 265,582 297,862c6,57 5,63 -19,87l-26,26h-188c-152,0 -193,-3 -210,-15c-16,-11 -37,-63 -77,-188c-78,-244 -147,-372 -368,-685c-60,-84 -90,-118 -120,-133c-63,-32 -73,-22 -32,38c127,189 102,436 -60,599c-34,34 -85,73 -114,88c-232,118 -513,35 -642,-190c-89,-153 -77,-363 27,-508l35,-49l-31,6c-54,11 -81,37 -182,181c-199,279 -276,425 -353,666c-25,80 -49,150 -54,156c-19,29 -56,34 -232,34h-181zM2685,2131c65,-29 138,-101 166,-165c32,-71 32,-181 0,-252c-28,-63 -100,-136 -166,-166c-73,-33 -191,-32 -260,2c-224,110 -250,412 -48,551c25,18 64,38 87,45c57,19 160,12 221,-15z"></path></g></g></g></svg>