<svg version="1.1" xmlns="http://www.w3.org/2000/svg" xmlns:xlink="http://www.w3.org/1999/xlink" width="225.000000pt" height="225.000000pt" viewBox="0,0,256,256"><g fill="#ffffff" fill-rule="nonzero" stroke="none" stroke-width="1" stroke-linecap="butt" stroke-linejoin="miter" stroke-miterlimit="10" stroke-dasharray="" stroke-dashoffset="0" font-family="none" font-weight="none" font-size="none" text-anchor="none" style="mix-blend-mode: normal"><g transform="translate(0.33793,0.32358) scale(1.13778,1.13778)"><g transform="translate(0,225) scale(0.1,-0.1)"><path d="M965,2239c-96,-12 -224,-53 -320,-102c-138,-70 -325,-282 -302,-341c13,-34 50,-14 81,44c40,76 165,196 251,242c272,143 695,133 1010,-25c299,-149 424,-387 395,-749c-16,-198 -59,-287 -216,-448c-57,-58 -108,-118 -113,-133c-12,-30 -15,-155 -5,-181c6,-16 53,-23 55,-8c0,4 1,43 2,88l2,81l112,117c92,95 120,132 153,199c62,127 74,186 74,377c1,190 -10,246 -74,376c-157,320 -636,521 -1105,463z"></path><path d="M1045,2028c-22,-11 -49,-29 -60,-39c-17,-15 -27,-16 -60,-9c-75,18 -158,-12 -213,-75c-18,-19 -34,-46 -37,-58c-4,-15 -19,-28 -41,-36c-109,-39 -178,-169 -154,-286c8,-41 8,-64 -5,-111c-30,-114 15,-218 116,-268c61,-30 130,-34 186,-11l36,15l31,-36c35,-43 96,-73 147,-74c20,0 41,-6 47,-12c5,-7 33,-71 62,-143c29,-71 62,-140 74,-153c16,-16 43,-26 97,-35c123,-22 153,3 124,106c-9,34 -19,67 -22,74c-8,20 35,16 64,-7c63,-49 164,-49 232,0c41,30 81,93 81,129c0,12 12,26 29,35c16,9 47,36 70,62c67,76 88,181 55,277c-15,44 -15,48 4,74c45,66 55,168 23,238c-23,51 -74,103 -123,125c-23,10 -49,35 -70,65c-68,101 -197,143 -301,97l-45,-20l-33,34c-42,44 -112,72 -134,54c-26,-21 -17,-39 30,-61c24,-11 60,-38 78,-59c49,-53 52,-54 98,-23c34,22 53,28 99,28c75,0 129,-35 165,-105c21,-41 31,-51 63,-59c65,-18 132,-107 132,-176c0,-36 -27,-95 -57,-127l-27,-28l24,-47c94,-187 -98,-389 -288,-303c-39,18 -41,21 -31,44c27,59 -26,78 -60,21c-40,-68 -132,-96 -200,-61c-25,13 -30,13 -57,-5c-40,-26 -83,-24 -125,6c-23,18 -41,24 -58,20c-61,-16 -135,43 -146,118c-5,33 -14,46 -38,62c-41,26 -49,76 -17,110c43,46 1,88 -46,44c-53,-50 -54,-125 -2,-184c16,-19 27,-39 23,-44c-10,-17 -84,-33 -118,-26c-109,23 -168,140 -120,239c14,30 14,42 5,74c-36,119 20,233 128,262c31,8 40,16 45,40c8,37 48,86 86,105c33,18 94,19 138,4c28,-10 34,-8 67,21c20,17 52,39 70,48c35,16 43,39 22,60c-15,15 -15,15 -63,-10zM1487,1035c30,-21 141,-48 169,-41c59,15 4,-66 -60,-88c-47,-16 -98,-7 -131,24c-15,14 -40,24 -65,26c-23,2 -45,6 -51,9c-21,13 -7,35 29,44c21,6 46,17 57,25c25,19 26,19 52,1zM1256,1012c9,-6 84,-234 84,-256c0,-9 -88,3 -111,15c-14,7 -104,208 -96,215c6,6 83,32 97,33c8,0 20,-3 26,-7z"></path><path d="M1025,1758c-103,-36 -161,-156 -125,-255c6,-15 75,-92 153,-170c129,-130 145,-143 177,-143c30,0 45,9 94,59c40,40 57,64 53,75c-14,36 -38,29 -93,-25l-54,-54l-126,125c-133,132 -160,172 -148,223c15,71 62,107 138,107c38,0 52,-6 85,-35c43,-39 64,-43 83,-17c25,34 62,52 109,52c75,0 129,-57 129,-137c0,-30 -9,-49 -40,-87c-42,-51 -45,-63 -17,-80c13,-8 24,-3 53,24c92,89 96,201 10,286c-69,70 -154,80 -241,29c-40,-23 -41,-23 -63,-4c-45,35 -119,47 -177,27z"></path><path d="M300,1665c-5,-14 -10,-43 -10,-63c0,-20 -12,-64 -25,-97c-32,-77 -31,-88 6,-158l30,-58l-22,-32c-12,-18 -57,-66 -100,-107c-69,-66 -79,-79 -79,-110c0,-52 31,-94 84,-116c25,-10 46,-22 46,-25c0,-3 -16,-20 -35,-38c-43,-39 -46,-74 -9,-112c24,-25 25,-31 16,-59c-15,-40 0,-77 34,-90c22,-9 25,-14 18,-33c-4,-12 -8,-47 -8,-78c-1,-73 33,-127 99,-158c68,-32 117,-35 266,-16c108,13 144,14 178,5c64,-17 130,-88 180,-193c48,-101 74,-123 141,-120c25,0 193,40 375,87c361,94 379,102 391,176c8,53 -34,164 -64,168c-33,5 -37,-20 -13,-90c19,-56 20,-64 6,-85c-9,-13 -16,-23 -18,-23c-1,-1 -155,-40 -342,-89c-211,-55 -347,-85 -360,-81c-11,4 -38,45 -66,99c-98,195 -189,242 -404,210c-108,-15 -197,-14 -233,5c-70,36 -92,89 -66,156c21,51 12,85 -26,105c-34,17 -37,27 -15,45c23,19 18,41 -16,77l-32,32l32,36c26,30 31,44 29,73c-3,34 -8,39 -56,63c-91,43 -90,64 3,144c67,57 125,139 125,178c0,15 -13,51 -29,79l-29,51l23,61c14,37 25,91 27,132c3,65 2,69 -19,72c-17,3 -26,-3 -33,-23z"></path></g></g></g></svg>