<svg version="1.1" xmlns="http://www.w3.org/2000/svg" xmlns:xlink="http://www.w3.org/1999/xlink" width="512.000000pt" height="512.000000pt" viewBox="0,0,256,256"><g fill="#ffffff" fill-rule="nonzero" stroke="none" stroke-width="1" stroke-linecap="butt" stroke-linejoin="miter" stroke-miterlimit="10" stroke-dasharray="" stroke-dashoffset="0" font-family="none" font-weight="none" font-size="none" text-anchor="none" style="mix-blend-mode: normal"><g transform="translate(-0.03782,0.07748) scale(0.5,0.5)"><g transform="translate(0,512) scale(0.1,-0.1)"><path d="M2360,5114c-320,-29 -627,-113 -905,-248c-169,-81 -327,-176 -350,-209c-42,-60 7,-134 86,-128c8,0 55,27 105,58c114,73 340,182 470,226c676,234 1402,161 2012,-200c50,-30 95,-60 98,-65c6,-9 -282,-308 -297,-308c-3,0 -46,22 -95,49c-405,223 -926,290 -1389,177c-445,-109 -844,-376 -1118,-748c-486,-660 -505,-1564 -48,-2244c505,-753 1437,-1062 2291,-761c615,217 1090,745 1246,1382c113,462 46,984 -177,1389c-27,49 -49,92 -49,95c0,15 299,303 308,297c5,-3 35,-48 65,-98c496,-837 439,-1873 -147,-2656c-40,-53 -83,-106 -94,-116l-22,-19v85c0,94 -17,131 -64,140c-36,7 -85,-17 -96,-47c-6,-15 -10,-116 -10,-225c0,-196 0,-199 24,-227l24,-28l198,-3c109,-2 208,-1 221,3c63,16 86,105 37,144c-23,18 -41,21 -121,21h-95l19,24c10,13 45,57 78,97c154,190 319,485 402,720c52,146 106,360 129,514c26,170 26,522 0,700c-22,159 -81,395 -131,530c-50,135 -160,359 -233,475l-61,95l82,85c45,47 139,144 208,215c142,146 165,189 157,289c-8,91 -35,129 -225,318c-158,155 -184,177 -232,193c-64,21 -150,16 -202,-10c-19,-10 -128,-108 -242,-219c-115,-111 -212,-200 -216,-199c-3,1 -47,27 -96,58c-111,70 -338,181 -466,229c-137,50 -346,104 -501,127c-129,19 -469,33 -578,23zM4785,4780c159,-159 160,-160 160,-205c0,-43 -4,-48 -85,-130l-85,-85l-207,207l-208,208l78,78c87,89 103,99 152,92c29,-4 61,-31 195,-165zM4450,4445l205,-205l-60,-60l-60,-60l-207,207l-208,208l57,57c32,32 60,58 63,58c3,0 97,-92 210,-205zM4210,4205l205,-205l-360,-360l-360,-360l-207,207l-208,208l357,357c197,197 360,358 363,358c3,0 97,-92 210,-205zM2470,4223c0,-145 14,-190 63,-207c40,-14 79,3 99,44c14,28 18,61 18,163v129l63,-7c205,-21 399,-71 568,-145c78,-35 147,-70 168,-87c3,-2 -90,-99 -206,-216c-185,-187 -213,-219 -231,-268c-11,-31 -42,-163 -68,-295c-55,-278 -54,-297 20,-370c73,-74 92,-75 370,-20c132,26 264,57 295,68c49,18 81,46 266,229c116,115 214,209 217,209c12,0 108,-210 142,-311c46,-136 96,-382 96,-476c0,-10 -31,-13 -127,-13c-102,0 -135,-4 -163,-18c-41,-20 -58,-59 -44,-99c17,-49 62,-63 206,-63h127l-6,-57c-31,-356 -167,-694 -392,-976l-63,-79l-97,95c-57,57 -109,99 -126,103c-56,14 -115,-45 -101,-101c4,-17 46,-69 103,-126l95,-97l-79,-63c-282,-225 -620,-361 -975,-392l-58,-6v127c0,101 -4,134 -18,162c-33,66 -111,66 -144,0c-14,-28 -18,-61 -18,-162v-127l-57,6c-355,31 -694,167 -976,392l-79,63l95,97c53,53 99,109 102,123c14,57 -46,117 -103,103c-14,-3 -70,-49 -123,-102l-97,-95l-63,79c-211,264 -356,606 -384,903c-3,36 -8,80 -11,98l-5,32h128c102,0 135,4 163,18c66,33 66,111 0,144c-28,14 -61,18 -163,18h-128l5,33c3,17 8,61 11,97c28,297 173,639 384,903l63,79l97,-95c53,-53 109,-99 123,-102c57,-14 117,46 103,103c-3,14 -49,70 -102,123l-95,97l79,63c271,216 599,353 929,388c43,5 85,9 92,10c9,1 12,-30 12,-126zM3552,3168c-4,-4 -109,-28 -232,-53c-184,-37 -227,-43 -237,-32c-11,10 -5,53 32,235c24,123 47,228 51,234c4,6 91,-74 200,-183c107,-106 190,-197 186,-201z"></path><path d="M2517,3829c-44,-26 -47,-54 -47,-508v-430l-54,-24c-66,-31 -126,-89 -163,-159c-25,-47 -28,-63 -28,-148c0,-79 4,-103 23,-141c37,-75 87,-125 160,-161c60,-30 76,-33 152,-33c86,0 128,13 202,61l26,18l132,-87c76,-50 142,-87 157,-87c30,0 83,50 83,79c0,45 -26,72 -151,155l-128,85l11,38c38,139 -49,316 -188,380l-54,24v430c0,457 -3,484 -48,508c-26,14 -62,14 -85,0zM2640,2707c51,-27 90,-90 90,-147c0,-87 -83,-170 -170,-170c-87,0 -170,83 -170,170c0,57 39,120 90,147c55,29 105,29 160,0z"></path><path d="M455,4429c-32,-18 -45,-41 -45,-79c0,-60 25,-74 141,-80l99,-5l-71,-85c-158,-190 -334,-499 -423,-741c-148,-404 -192,-881 -120,-1304c88,-519 344,-1014 715,-1384c205,-204 409,-350 670,-480c249,-124 503,-204 784,-247c149,-22 531,-26 675,-6c375,53 742,184 1035,370c101,64 115,79 115,124c0,42 -24,74 -64,84c-27,6 -47,-3 -181,-86c-106,-66 -316,-164 -445,-208c-516,-177 -1094,-172 -1597,14c-732,269 -1302,895 -1492,1637c-185,720 -40,1452 403,2045c40,53 83,106 94,116l22,19v-85c0,-94 17,-131 64,-140c36,-7 85,17 96,47c6,15 10,116 10,225c0,196 0,199 -24,227l-24,28l-209,3c-140,1 -215,-2 -228,-9z"></path></g></g></g></svg>