<svg version="1.1" xmlns="http://www.w3.org/2000/svg" xmlns:xlink="http://www.w3.org/1999/xlink" width="512.000000pt" height="512.000000pt" viewBox="0,0,256,256"><g fill="#ffffff" fill-rule="nonzero" stroke="none" stroke-width="1" stroke-linecap="butt" stroke-linejoin="miter" stroke-miterlimit="10" stroke-dasharray="" stroke-dashoffset="0" font-family="none" font-weight="none" font-size="none" text-anchor="none" style="mix-blend-mode: normal"><g transform="translate(-0.01836,-0.00483) scale(0.5,0.5)"><g transform="translate(0,512) scale(0.1,-0.1)"><path d="M227,4936c-61,-17 -122,-59 -164,-114c-68,-89 -63,59 -61,-2122l3,-1975l24,-49c29,-60 85,-117 143,-148l43,-23h1490h1490l54,30c66,37 115,92 141,162c18,49 20,78 20,312v258l58,21l57,22l107,-107l107,-106l-20,-25c-12,-15 -19,-40 -19,-66c0,-41 3,-44 363,-403c397,-397 401,-400 543,-424c142,-25 286,24 386,129c113,118 152,265 113,417c-31,117 -52,142 -420,513l-350,352h-46c-32,0 -55,-6 -70,-19l-24,-20l-106,106l-107,105l25,60c84,208 89,463 13,682c-27,79 -90,194 -145,266c-97,126 -267,254 -401,302l-64,23v173v174l-29,29c-22,21 -39,29 -66,29c-88,0 -105,-35 -105,-218v-139l-127,-6c-152,-6 -248,-29 -378,-91c-257,-122 -434,-335 -517,-623c-20,-68 -23,-100 -22,-248c1,-154 3,-178 27,-258c125,-408 466,-673 895,-694l122,-6v-218c0,-148 -4,-227 -12,-244c-26,-58 58,-55 -1499,-55h-1431l-34,34l-34,34v1946c0,1721 2,1950 15,1976c33,64 -66,60 1490,60c1237,0 1420,-2 1445,-15c58,-30 60,-40 60,-263c0,-255 10,-282 108,-282c33,0 45,6 66,31l26,31v217c0,165 -4,230 -15,269c-20,68 -96,151 -167,183l-53,24l-1450,2c-1166,1 -1459,-1 -1498,-11zM3250,2926c297,-54 520,-259 602,-553c27,-99 29,-265 4,-368c-22,-94 -94,-237 -153,-308c-205,-245 -532,-334 -840,-228c-106,37 -178,80 -264,159c-167,154 -247,353 -237,591c6,131 38,244 99,349c55,92 200,230 294,279c163,84 324,110 495,79zM3970,1325l-85,-85l-88,88l-88,89l83,85l83,85l90,-88l90,-89zM4893,725c30,-56 30,-164 0,-220c-25,-47 -64,-85 -113,-111c-48,-25 -162,-25 -210,0c-19,10 -169,151 -332,314l-298,297l172,172l173,173l293,-292c161,-161 303,-311 315,-333z"></path><path d="M3193,2268l-223,-222l-98,97c-93,91 -102,97 -140,97c-62,0 -97,-34 -97,-94c0,-47 0,-47 146,-191c143,-142 146,-145 189,-145h44l263,262c171,171 267,273 273,294c21,62 -26,124 -94,124c-39,0 -47,-7 -263,-222z"></path><path d="M569,4201l-29,-29v-316v-316l29,-32l29,-33h321h321l27,28l28,27l3,307c2,219 -1,315 -9,335c-24,58 -25,58 -372,58h-319zM1100,3850v-180h-180h-180v180v180h180h180z"></path><path d="M1703,4212c-58,-45 -46,-139 21,-167c30,-13 120,-15 541,-15c539,0 559,2 584,48c20,38 13,94 -16,124l-27,28h-540c-497,0 -543,-2 -563,-18z"></path><path d="M3248,3917c-35,-32 -44,-77 -23,-117c19,-37 73,-63 110,-54c38,9 75,59 75,101c0,79 -104,124 -162,70z"></path><path d="M1714,3791c-61,-37 -65,-115 -8,-160c26,-21 34,-21 406,-21c423,0 418,-1 439,69c14,47 0,85 -43,111c-31,19 -51,20 -398,20c-342,0 -367,-1 -396,-19z"></path><path d="M569,3071l-29,-29v-311c0,-211 4,-318 11,-335c25,-53 51,-57 385,-54l306,3l29,33l29,32v306c0,324 -3,349 -49,374c-12,6 -138,10 -336,10h-317zM1100,2720v-180h-180h-180v180v180h180h180z"></path><path d="M1723,3090c-31,-13 -57,-57 -57,-98c0,-26 8,-41 32,-63l32,-29h236c184,0 241,3 263,14c66,35 66,137 0,172c-22,11 -77,14 -256,13c-125,0 -238,-4 -250,-9z"></path><path d="M1702,2645c-38,-32 -46,-65 -28,-109c21,-52 63,-69 154,-64c69,3 76,6 103,36c32,36 36,69 14,112c-22,42 -43,50 -134,50c-70,0 -83,-3 -109,-25z"></path><path d="M569,1941l-29,-29v-312c0,-337 2,-354 55,-378c18,-8 116,-12 331,-12h306l34,34l34,34v307c0,318 -2,333 -44,367c-19,16 -53,18 -339,18h-319zM1100,1590v-180h-180h-180v180v180h180h180z"></path><path d="M1702,1945c-38,-32 -46,-65 -28,-109c21,-52 63,-69 154,-64c69,3 76,6 103,36c42,47 36,103 -15,144c-16,13 -40,18 -103,18c-72,0 -85,-3 -111,-25z"></path><path d="M1730,1537c-49,-17 -76,-72 -60,-122c21,-64 27,-65 303,-65h249l29,29c51,52 33,128 -37,157c-43,18 -431,19 -484,1z"></path></g></g></g></svg>